<?xml version="1.0" standalone="no"?>
<!DOCTYPE svg PUBLIC "-//W3C//DTD SVG 20010904//EN"
 "http://www.w3.org/TR/2001/REC-SVG-20010904/DTD/svg10.dtd">
<svg version="1.0" xmlns="http://www.w3.org/2000/svg"
 width="1064.000000pt" height="1064.000000pt" viewBox="0 0 1064.000000 1064.000000"
 preserveAspectRatio="xMidYMid meet">
<metadata>
Created by potrace 1.16, written by Peter Selinger 2001-2019
</metadata>
<g transform="translate(0.000000,1064.000000) scale(0.100000,-0.100000)"
fill="#000000" stroke="none">
<path d="M0 5320 l0 -5320 5320 0 5320 0 0 5320 0 5320 -5320 0 -5320 0 0
-5320z m1950 3442 c25 -20 67 -53 93 -72 27 -19 69 -52 93 -72 56 -47 210
-156 479 -339 44 -30 105 -69 136 -87 31 -18 62 -39 69 -47 7 -8 20 -15 30
-15 10 0 20 -10 24 -22 3 -13 31 -41 61 -62 30 -22 55 -41 55 -42 0 -4 -67 20
-125 46 -91 40 -98 42 -92 26 3 -7 -2 -22 -12 -33 -10 -10 -21 -31 -25 -46 -3
-15 -11 -27 -18 -27 -6 0 -16 -7 -22 -16 -11 -14 -18 -13 -70 10 -57 25 -257
142 -305 178 -29 22 -61 23 -61 2 0 -8 5 -12 10 -9 6 3 10 0 10 -8 0 -32 182
-176 345 -274 139 -84 278 -152 475 -233 154 -64 200 -79 200 -65 0 3 -7 22
-15 42 -20 48 -21 109 -3 157 l15 38 22 -23 c12 -13 21 -36 21 -54 0 -47 34
-157 63 -208 15 -25 52 -67 82 -92 55 -47 66 -70 43 -93 -19 -19 -31 -15 -96
28 -33 22 -65 40 -72 40 -18 0 -6 -79 19 -128 31 -60 58 -57 247 34 l71 35 -3
129 c-2 72 0 130 5 130 19 0 61 -43 61 -63 0 -12 4 -28 9 -36 18 -29 24 54 7
88 -25 48 -71 71 -219 111 -71 19 -147 62 -147 83 0 8 15 11 49 9 42 -3 52 0
74 23 17 20 38 29 71 32 29 4 46 11 46 19 0 15 60 64 78 64 7 0 12 5 12 10 0
6 6 10 14 10 8 0 16 7 20 15 3 8 12 15 21 15 8 0 15 7 15 16 0 8 20 24 46 36
46 20 46 20 40 61 -9 65 -32 173 -40 185 -3 6 -106 -90 -233 -219 -124 -126
-232 -229 -239 -229 -17 0 -26 28 -14 49 19 36 492 490 504 485 8 -3 28 -56
46 -117 48 -169 55 -180 115 -189 28 -5 75 -5 105 -2 30 3 64 6 75 7 21 0 71
16 215 67 47 16 86 30 88 30 6 0 42 -86 42 -103 0 -10 -12 -22 -27 -28 -16 -6
-44 -25 -63 -44 -20 -18 -70 -47 -113 -64 -136 -54 -352 -175 -472 -264 l-70
-52 -3 -54 c-2 -30 0 -57 5 -62 4 -4 53 26 108 68 55 41 123 86 150 99 28 13
74 37 103 53 30 16 70 36 90 45 21 8 55 24 78 34 l41 20 -4 -22 c-4 -17 3 -24
31 -34 20 -7 36 -18 36 -23 0 -6 -25 -21 -55 -35 -30 -14 -57 -29 -60 -34 -3
-5 6 -18 21 -29 l26 -20 -29 -6 c-47 -11 -60 -17 -45 -22 25 -10 11 -22 -34
-29 -31 -4 -44 -11 -40 -19 2 -7 2 -16 -2 -20 -4 -4 -7 -12 -7 -18 0 -7 -16
-17 -35 -24 -19 -6 -34 -16 -33 -21 1 -6 -17 -16 -40 -24 -23 -8 -41 -19 -40
-25 1 -6 -18 -16 -42 -23 -42 -12 -60 -29 -32 -31 6 0 -3 -5 -22 -11 -18 -5
-40 -16 -49 -24 -8 -8 -28 -18 -44 -21 -19 -4 -27 -10 -24 -19 3 -7 1 -16 -3
-19 -21 -12 1 -138 38 -224 106 -248 223 -380 427 -482 35 -18 62 -34 60 -36
-6 -6 -107 36 -166 70 -59 33 -99 61 -170 118 -25 20 -53 39 -63 43 -17 5 -85
-18 -97 -34 -7 -9 -58 -21 -90 -22 -14 0 -19 -3 -12 -5 6 -3 12 -9 12 -15 0
-22 -25 1 -30 27 -4 25 -13 31 -86 56 -88 29 -160 67 -189 99 -10 11 -22 20
-27 20 -40 0 74 -104 160 -146 39 -19 72 -37 72 -41 0 -3 -41 -3 -92 0 -81 5
-94 9 -110 29 -10 13 -18 30 -18 38 0 9 -18 39 -39 68 -54 71 -87 166 -101
292 -4 41 -15 104 -24 140 -28 113 -39 153 -56 220 l-16 64 -200 86 c-110 47
-274 122 -364 167 -91 45 -166 80 -167 79 -7 -7 250 -178 430 -286 31 -19 57
-38 57 -42 0 -4 -44 8 -97 28 -97 35 -143 47 -141 35 3 -25 -5 -42 -23 -52
-27 -14 -71 2 -252 93 -76 38 -144 67 -150 65 -39 -14 -212 95 -293 186 -63
71 -72 83 -79 118 -4 19 -20 50 -34 69 -72 94 -163 260 -142 260 4 0 25 -15
47 -33 75 -62 78 -62 29 2 -72 92 -125 151 -137 151 -5 0 -13 -10 -16 -22 -5
-19 -8 -13 -19 27 -24 92 -19 92 81 -1 127 -117 176 -147 176 -110 0 7 10 20
22 28 l23 15 -29 41 c-15 22 -25 46 -21 51 3 6 1 11 -4 11 -6 0 -11 10 -11 21
0 12 -19 54 -41 93 -67 115 -90 159 -105 199 -14 41 -14 41 40 3 35 -24 29
-10 -26 55 -21 26 -38 50 -38 54 0 4 33 -21 73 -54 39 -34 92 -78 117 -99z
m7059 139 c-8 -11 -29 -38 -47 -60 -19 -23 -29 -41 -24 -41 5 0 15 7 22 15 20
24 43 19 34 -7 -8 -27 -109 -213 -135 -250 -11 -14 -19 -38 -19 -52 0 -14 -13
-47 -30 -72 -29 -47 -30 -48 -11 -66 11 -10 24 -25 29 -35 9 -15 14 -13 53 17
24 19 81 70 126 114 46 44 85 78 87 75 7 -8 -11 -100 -22 -111 -9 -9 -12 -8
-12 5 0 34 -29 16 -81 -50 -29 -38 -66 -83 -83 -100 -42 -46 -22 -41 36 8 27
23 52 39 55 35 10 -9 -46 -113 -118 -219 -38 -56 -69 -112 -69 -124 0 -54
-236 -263 -297 -263 -13 0 -22 -4 -19 -9 3 -5 -11 -11 -32 -14 -20 -2 -108
-39 -196 -81 l-159 -77 -49 12 c-41 9 -49 15 -45 30 7 25 3 24 -95 -12 -93
-35 -138 -49 -138 -44 0 2 73 49 163 106 174 110 313 204 322 220 4 5 -78 -32
-182 -84 -216 -106 -276 -134 -427 -193 -60 -24 -113 -49 -118 -56 -4 -7 -8
-25 -8 -39 0 -15 -8 -48 -19 -75 -21 -56 -45 -167 -66 -304 -18 -127 -48 -218
-90 -277 -19 -26 -43 -67 -54 -91 -11 -23 -26 -44 -33 -47 -28 -10 -134 -20
-162 -15 -27 5 -22 8 57 48 51 26 99 58 121 82 47 52 46 70 -1 32 -49 -38
-113 -70 -192 -96 -38 -13 -68 -29 -75 -41 -6 -11 -12 -22 -13 -24 -2 -2 -9 2
-18 9 -13 11 -14 10 -9 -4 3 -9 1 -16 -5 -16 -6 0 -11 4 -11 8 0 8 -95 54
-137 67 -17 4 -43 -10 -114 -64 -51 -39 -122 -86 -158 -105 -63 -33 -172 -78
-177 -73 -1 1 45 26 102 56 158 82 265 188 353 351 42 79 76 165 62 156 -14
-9 -61 45 -61 69 0 12 9 30 20 40 19 17 21 17 39 1 23 -21 41 -14 41 15 0 24
-123 149 -219 223 -98 77 -237 167 -333 216 l-88 45 0 48 c0 33 4 46 11 41 6
-3 14 -1 18 5 9 13 138 -46 160 -73 12 -14 10 -16 -15 -16 -23 0 -8 -13 83
-69 110 -68 143 -92 301 -218 42 -34 79 -58 82 -54 3 4 13 10 23 14 14 5 17
19 17 70 0 72 -5 79 -140 180 -41 31 -86 65 -100 75 -45 34 -204 126 -305 177
-55 28 -103 54 -107 59 -3 5 -9 30 -13 55 -4 25 -18 67 -31 93 -25 50 -25 54
4 38 9 -5 44 -21 77 -35 145 -64 309 -152 387 -207 25 -18 166 -58 206 -58 23
0 32 -20 10 -20 -23 -1 36 -29 62 -30 l25 -1 -25 -11 -25 -10 25 -11 c23 -9
23 -10 5 -14 -30 -7 -41 -21 -21 -29 9 -3 38 2 64 12 26 10 49 19 52 19 3 1
19 4 35 7 67 14 125 19 125 10 0 -5 -12 -12 -27 -15 -118 -23 -191 -55 -229
-100 -25 -30 -32 -80 -14 -107 7 -12 10 -8 10 15 0 35 6 45 40 68 31 22 43 22
36 0 -3 -10 -6 -69 -7 -131 -3 -123 -1 -127 54 -139 15 -3 30 -10 33 -14 3 -5
12 -9 21 -9 8 0 26 -9 40 -20 14 -11 36 -20 49 -20 12 0 30 -7 39 -17 12 -12
19 -13 24 -4 4 6 14 9 23 6 22 -8 60 84 56 135 l-3 38 -68 -46 c-75 -50 -99
-50 -105 0 -3 21 6 32 43 59 80 57 121 137 146 289 15 86 40 118 54 68 3 -13
11 -33 17 -45 10 -21 4 -74 -18 -150 -8 -28 9 -30 58 -9 18 8 85 36 148 61
229 94 486 233 640 348 70 52 190 158 190 167 0 4 -11 11 -25 14 -19 5 -37 -2
-78 -32 -125 -91 -316 -189 -346 -176 -12 5 -13 8 -3 11 9 3 5 12 -12 28 -13
12 -26 36 -28 51 -2 22 -8 28 -22 26 -11 -2 -15 1 -11 7 10 17 -18 13 -65 -10
-45 -22 -150 -60 -150 -55 0 1 29 22 65 47 36 24 64 50 62 57 -1 9 50 47 123
93 127 80 261 169 360 240 186 132 288 209 380 284 30 24 74 59 98 77 24 18
66 52 93 76 54 45 69 53 48 23z m-3284 -201 c-14 -203 -66 -355 -147 -424 -60
-52 -70 -44 -16 12 56 58 95 133 114 221 19 93 17 103 -10 45 -41 -87 -167
-254 -192 -254 -8 0 -14 10 -14 23 0 18 -15 6 -78 -60 -79 -85 -95 -95 -106
-67 -9 24 67 237 113 316 22 37 38 68 35 68 -2 0 -30 -39 -62 -87 -57 -87
-100 -168 -123 -231 -6 -18 -14 -30 -18 -27 -3 4 -11 -9 -17 -27 l-12 -33 -1
50 c0 71 23 192 49 252 30 71 93 126 229 203 67 38 141 90 180 126 l66 62 8
-37 c5 -20 6 -79 2 -131z m-576 -170 c58 -87 59 -90 48 -127 -13 -44 -16 -251
-4 -305 l8 -36 53 5 c112 12 221 -47 270 -146 13 -25 40 -95 60 -156 45 -133
113 -280 162 -348 l36 -50 -33 7 c-102 20 -244 113 -365 237 -93 97 -124 141
-188 264 -51 100 -60 102 -20 5 23 -57 24 -68 14 -106 -7 -24 -10 -60 -6 -81
3 -21 7 -44 8 -50 3 -25 106 -149 154 -185 44 -34 123 -78 140 -78 4 0 -22 31
-57 68 -35 38 -73 84 -83 103 -14 25 -3 17 40 -31 77 -85 101 -109 149 -147
l40 -33 -55 16 c-101 29 -186 83 -274 174 -46 48 -95 106 -109 130 -34 59 -57
148 -58 230 -1 54 -3 59 -8 29 -4 -19 -22 -53 -39 -75 -34 -42 -67 -124 -78
-193 -4 -23 -10 -44 -14 -46 -14 -8 -42 78 -48 143 -2 34 -8 62 -13 62 -4 0
-17 -25 -28 -55 -28 -74 -28 -194 0 -328 23 -111 44 -163 35 -87 -13 107 -3
285 15 274 5 -3 9 -38 9 -78 0 -132 36 -298 87 -399 13 -27 22 -51 20 -53 -2
-2 -33 22 -68 55 -76 69 -164 191 -205 281 -26 60 -29 75 -28 180 0 81 5 132
17 174 10 32 16 60 13 63 -10 10 -86 -164 -108 -247 -17 -67 -28 -91 -52 -112
-17 -15 -35 -27 -40 -28 -16 0 3 89 32 147 54 108 47 124 -13 33 -38 -58 -55
-92 -52 -107 4 -20 0 -23 -25 -23 -25 0 -29 3 -23 18 4 9 15 40 25 69 28 79
34 87 139 178 86 73 123 117 109 130 -1 2 -41 6 -88 9 -77 6 -82 5 -51 -7 l34
-13 -28 -22 c-15 -12 -32 -22 -36 -22 -5 0 -9 -8 -9 -18 0 -10 -13 -25 -29
-35 -28 -16 -29 -19 -19 -53 12 -46 4 -53 -26 -22 -13 15 -37 33 -55 42 -27
15 -30 19 -20 37 6 12 20 49 31 82 26 81 49 111 99 131 55 22 59 15 8 -18 -22
-15 -38 -30 -35 -33 3 -4 14 1 23 9 40 35 106 60 142 55 l36 -6 -44 21 c-55
27 -81 69 -81 131 0 57 24 109 90 192 81 101 166 174 117 100 -7 -11 -29 -56
-47 -100 -31 -72 -35 -89 -34 -170 0 -115 16 -154 80 -195 67 -42 170 -42 119
0 -33 27 -12 28 33 0 54 -32 98 -48 88 -31 -4 6 -15 11 -24 11 -26 0 -87 54
-106 94 -23 49 -20 85 19 252 50 214 56 329 20 439 -12 37 143 -135 204 -225z
m-223 -135 c-14 -66 -32 -150 -40 -187 -12 -48 -13 -79 -7 -115 5 -26 8 -50 6
-52 -4 -4 -42 75 -69 144 -17 44 -23 116 -12 155 5 19 1 15 -17 -13 -13 -20
-29 -62 -36 -92 -10 -46 -10 -63 3 -109 9 -29 24 -62 33 -73 10 -10 15 -14 11
-8 -4 6 -10 31 -13 55 -4 33 -3 38 4 19 14 -41 32 -72 59 -101 31 -33 24 -45
-17 -29 -69 29 -101 94 -101 205 0 95 26 148 129 261 44 49 82 94 82 100 1 5
4 -1 6 -15 2 -14 -7 -79 -21 -145z m1045 -38 c39 -21 117 -112 105 -124 -2 -2
-43 12 -90 31 -72 30 -98 36 -159 36 -61 0 -78 -4 -105 -24 l-33 -24 148 -5
c171 -5 227 -19 301 -75 41 -30 48 -38 34 -44 -9 -4 -12 -7 -5 -7 24 -2 81
-62 98 -103 19 -49 33 -218 18 -218 -18 0 -40 34 -47 72 -4 21 -18 51 -32 67
-55 66 -193 105 -289 83 l-40 -9 60 -18 c95 -28 198 -79 245 -121 58 -52 80
-103 80 -184 l0 -65 -20 25 c-11 14 -23 41 -26 60 -9 50 -27 80 -71 121 -88
83 -186 119 -317 118 l-91 -1 84 -19 c104 -23 194 -65 270 -124 100 -78 126
-127 136 -250 7 -80 15 -120 40 -178 6 -15 4 -16 -20 -7 -37 14 -55 -2 -55
-51 0 -52 -34 -204 -58 -260 -11 -24 -30 -53 -42 -64 l-23 -20 7 57 c3 31 9
65 13 75 6 16 8 15 14 -7 6 -24 8 -22 28 22 36 78 55 228 31 243 -6 4 -10 -17
-10 -57 0 -56 -10 -114 -27 -158 -13 -34 -19 37 -6 79 15 52 17 151 3 151 -5
0 -10 -25 -10 -55 0 -96 -61 -235 -156 -355 -39 -50 -41 -45 -14 41 25 83 40
179 40 254 -1 86 -16 51 -28 -65 -6 -52 -18 -123 -28 -157 -16 -60 -19 -63
-48 -63 -42 0 -281 61 -412 105 -86 28 -109 33 -127 24 -25 -14 -190 -67 -232
-75 -29 -5 -32 -2 -73 74 -23 44 -42 86 -42 93 0 11 22 15 91 17 50 1 99 7
111 13 20 11 20 11 -3 35 -13 13 -17 24 -10 24 22 0 0 20 -52 47 -38 19 -68
27 -112 27 -59 1 -75 8 -75 34 0 20 39 14 144 -23 140 -49 161 -46 137 18 -9
24 -71 65 -71 47 0 -4 -16 1 -36 11 -20 10 -70 26 -110 35 -71 15 -74 17 -74
45 0 19 4 27 13 23 9 -3 17 17 26 71 11 68 80 235 87 210 2 -6 8 -35 14 -66 6
-31 26 -82 45 -114 19 -31 32 -62 28 -69 -3 -6 -3 -8 2 -4 4 4 47 -29 94 -75
87 -83 175 -138 285 -178 28 -10 43 -18 34 -19 -10 0 -18 -7 -18 -15 0 -13 4
-14 23 -4 18 10 18 8 -5 -14 -16 -14 -28 -30 -28 -36 0 -22 165 -37 231 -21
50 12 119 60 119 83 0 6 -12 -1 -27 -16 -42 -39 -89 -54 -163 -52 -36 2 -83 3
-105 4 l-40 1 30 20 c17 11 38 19 47 16 9 -2 19 1 21 8 3 8 8 8 18 -1 21 -21
49 -15 59 12 5 14 16 25 22 24 25 -3 43 2 62 16 18 14 18 16 -13 50 -17 20
-31 39 -31 44 0 13 90 27 148 23 l52 -4 0 -38 c0 -22 5 -42 10 -45 6 -4 10 21
11 67 l1 73 12 -49 12 -50 21 29 c23 32 24 31 98 -13 30 -19 85 -36 85 -28 0
2 -9 44 -21 93 -23 96 -38 134 -39 96 0 -36 -12 -27 -55 39 -39 60 -130 158
-147 158 -4 0 -29 15 -55 34 -54 38 -109 67 -183 96 -62 24 -66 18 -5 -9 104
-46 223 -140 293 -231 49 -64 162 -234 157 -238 -13 -14 -240 136 -418 277
-71 55 -133 101 -137 101 -5 0 -11 9 -14 20 -3 11 -9 30 -12 42 -6 19 0 18 61
-16 36 -21 69 -36 71 -33 8 8 -119 87 -138 87 -10 0 -18 4 -18 9 0 6 -22 39
-50 75 -27 36 -50 71 -50 78 0 14 81 65 140 89 l34 13 -34 7 c-26 6 -50 2 -92
-16 -32 -12 -58 -21 -58 -19 0 12 119 90 167 110 32 12 58 27 58 31 1 4 7 19
14 31 34 62 205 85 292 39z m1697 -33 c39 -19 62 -39 83 -73 52 -81 65 -176
24 -176 -16 0 -21 9 -28 55 -11 76 -46 126 -110 156 -60 28 -112 30 -165 9
-78 -33 -122 -101 -122 -191 0 -64 18 -109 60 -149 34 -33 39 -55 11 -55 -30
0 -68 37 -97 95 -53 109 -17 249 81 317 78 54 169 58 263 12z m1348 -383 c-3
-21 -12 -53 -21 -72 -14 -34 -14 -34 -15 -6 0 15 -4 27 -8 27 -8 0 -46 -39
-87 -89 l-20 -24 24 8 c21 6 23 5 18 -17 -4 -14 -29 -65 -56 -114 -33 -61 -46
-93 -40 -101 7 -7 6 -14 -3 -20 -7 -4 -19 -19 -26 -33 -22 -43 -147 -166 -224
-220 -83 -59 -108 -71 -157 -75 -19 -2 -44 -8 -55 -13 -145 -68 -288 -126
-358 -147 -53 -15 -59 -15 -82 1 -23 15 -31 32 -27 58 2 10 -10 8 -143 -28
-55 -14 -101 -24 -103 -22 -2 2 32 24 75 49 44 25 92 56 108 69 36 30 150 97
311 184 238 128 317 175 433 257 157 111 264 196 355 282 50 46 94 85 99 85 5
0 6 -17 2 -39z m-7157 -45 c225 -207 402 -329 757 -523 109 -60 235 -133 279
-161 44 -28 116 -73 159 -99 97 -59 83 -66 -55 -27 -96 27 -99 27 -119 9 -23
-21 -26 -40 -5 -31 8 3 15 1 15 -5 0 -5 -12 -14 -27 -20 -35 -13 -122 15 -333
108 -80 35 -146 59 -148 53 -7 -19 -27 -10 -122 51 -96 62 -270 224 -270 252
0 8 -7 20 -15 27 -12 10 -13 15 -4 20 8 6 1 24 -23 61 -44 70 -88 153 -88 169
0 7 8 10 20 7 16 -4 18 -2 10 11 -22 41 -78 92 -93 86 -12 -4 -18 4 -26 33
-21 74 -13 72 88 -21z m3823 -186 c-1 -6 2 -8 9 -5 11 8 71 -43 64 -55 -2 -4
1 -7 8 -7 11 0 131 -78 169 -110 9 -8 18 -23 21 -34 5 -19 5 -19 -21 0 -15 10
-42 26 -60 35 -32 16 -35 16 -89 -8 -30 -15 -59 -26 -63 -26 -13 0 -120 256
-120 288 0 3 19 -11 43 -31 23 -20 41 -41 39 -47z m-1002 -255 c0 -5 13 -52
29 -105 16 -52 36 -124 45 -160 l15 -65 -29 34 c-37 43 -77 151 -86 231 -11
95 -21 57 -14 -51 6 -82 12 -104 43 -165 41 -78 78 -174 69 -174 -4 0 -26 26
-49 58 -59 78 -105 199 -111 289 -6 91 1 119 35 137 24 12 29 12 40 -3 7 -9
13 -20 13 -26z m-2695 -106 c55 -44 169 -124 254 -177 507 -318 619 -376 948
-487 101 -35 140 -52 136 -62 -7 -17 -30 -16 -126 2 -82 16 -145 20 -134 8 10
-9 -41 -33 -70 -33 -35 0 -116 24 -283 85 -185 67 -197 70 -195 46 4 -56 241
-176 515 -262 69 -22 139 -44 156 -49 17 -6 39 -10 50 -10 10 0 26 -5 34 -11
39 -27 -346 39 -444 77 -27 10 -17 -10 12 -24 155 -76 311 -126 517 -167 183
-36 210 -44 196 -58 -13 -13 -92 -12 -331 2 -158 9 -190 15 -410 77 -105 29
-130 33 -156 24 -26 -9 -40 -7 -90 15 -89 39 -183 104 -190 130 -3 13 -29 42
-57 65 -29 23 -61 56 -72 74 -41 65 -106 143 -146 175 -39 32 -99 106 -99 123
0 18 37 6 112 -38 43 -26 82 -43 86 -39 4 4 1 10 -5 12 -15 5 -17 43 -3 43 20
0 9 35 -21 66 -16 17 -31 42 -32 55 0 13 -9 31 -19 40 -10 9 -18 19 -18 22 0
3 -23 38 -50 78 -28 41 -48 80 -45 88 6 16 -51 81 -72 81 -7 0 -13 -10 -14
-22 0 -19 -3 -17 -16 12 -8 19 -19 43 -24 52 -11 22 -12 68 -1 68 4 0 52 -36
107 -81z m6901 44 c-3 -16 -13 -50 -20 -78 -11 -37 -15 -43 -15 -22 -1 15 -4
27 -9 27 -19 0 -72 -61 -72 -83 0 -14 -24 -56 -55 -98 -30 -41 -59 -89 -64
-107 -5 -18 -28 -56 -51 -85 -34 -42 -39 -53 -25 -55 12 -3 15 -10 11 -28 -4
-15 -2 -24 5 -24 15 0 136 67 144 80 8 13 45 13 45 1 0 -24 -45 -83 -100 -130
-32 -28 -82 -83 -111 -121 -28 -39 -56 -70 -60 -70 -5 0 -9 -5 -9 -11 0 -12
-48 -73 -97 -122 -69 -69 -262 -164 -295 -144 -20 13 -48 8 -258 -48 -108 -29
-165 -38 -285 -45 -219 -14 -348 -13 -343 2 5 13 31 20 243 63 149 30 220 51
359 107 152 62 229 112 114 74 -102 -34 -220 -58 -380 -80 -59 -7 -45 8 20 23
185 42 577 202 662 270 24 19 24 21 7 38 -19 20 -16 21 -273 -75 -45 -17 -114
-35 -153 -41 -67 -11 -73 -10 -101 11 l-30 22 -103 -17 c-96 -16 -167 -22
-139 -10 6 2 10 8 7 12 -2 5 39 23 93 41 166 57 315 116 434 174 111 53 164
83 378 219 52 33 142 90 200 125 58 36 132 86 165 111 110 86 156 121 162 121
3 0 3 -12 -1 -27z m-4082 -123 c42 -63 165 -189 213 -217 24 -14 43 -27 41
-28 -7 -7 -218 -55 -241 -55 -26 0 -36 17 -56 92 -9 37 -9 38 15 32 28 -7 28
-8 9 46 -13 37 -22 170 -11 170 2 0 15 -18 30 -40z m1190 -453 c-47 -141 -70
-182 -153 -274 -80 -87 -151 -151 -151 -136 0 5 40 53 89 107 52 56 104 126
124 164 39 74 87 203 87 232 0 25 24 32 28 8 2 -10 -9 -56 -24 -101z m1225
-254 c-13 -26 -42 -69 -66 -94 -23 -25 -58 -80 -77 -121 -40 -89 -80 -137
-142 -173 -38 -22 -45 -31 -40 -49 8 -34 -95 -152 -168 -191 -31 -16 -56 -35
-56 -41 0 -19 247 -88 414 -114 78 -13 94 -23 54 -34 -70 -18 -209 8 -351 66
l-78 32 -23 -28 -22 -28 -42 21 c-23 12 -42 27 -42 35 0 8 -16 16 -37 20 -52
9 -122 42 -129 61 -11 29 11 36 112 39 107 3 176 25 239 78 17 14 41 31 55 39
23 13 17 14 -77 19 -104 5 -145 20 -113 40 8 5 31 10 50 10 48 0 144 26 200
53 51 25 160 125 160 147 0 12 -16 15 -74 15 -68 0 -106 13 -106 35 0 4 30 10
67 13 115 11 207 69 288 179 28 40 31 26 4 -29z m-3580 -60 c51 -49 134 -84
213 -90 37 -3 68 -10 68 -15 0 -20 -75 -40 -132 -36 -32 2 -58 2 -58 -1 0 -18
63 -89 108 -122 67 -47 138 -75 217 -84 72 -8 95 -14 95 -24 0 -18 -56 -31
-133 -31 l-82 -1 35 -30 c19 -17 68 -47 109 -67 74 -37 93 -39 274 -42 5 0 7
-10 5 -22 -2 -17 -20 -28 -78 -51 -41 -16 -82 -33 -90 -38 -8 -5 -31 -18 -51
-28 -36 -20 -36 -20 -56 1 l-21 20 -89 -36 c-118 -47 -211 -68 -291 -64 -79 4
-94 23 -25 32 192 27 462 103 448 125 -3 5 -25 19 -50 31 -59 29 -189 168
-174 186 14 17 5 30 -39 58 -62 39 -110 96 -138 165 -15 36 -46 86 -69 111
-46 49 -79 101 -89 140 -6 21 -2 19 26 -15 18 -22 48 -54 67 -72z m2115 -192
c-8 -119 -9 -119 -119 -151 -69 -20 -185 -37 -185 -27 0 3 16 15 35 27 37 23
48 44 18 34 -10 -4 7 11 36 31 30 21 91 73 135 116 45 42 82 76 84 75 1 -2 -1
-49 -4 -105z m-3314 9 c58 -41 230 -120 271 -125 24 -3 53 -8 64 -12 l20 -6
-20 23 -20 23 20 -6 c11 -3 45 -13 75 -22 264 -79 492 -110 769 -103 99 2 179
2 176 0 -16 -16 -271 -52 -370 -52 -39 0 -142 9 -230 20 -87 11 -161 18 -164
15 -24 -24 180 -84 334 -99 33 -3 125 -8 205 -11 80 -3 169 -8 199 -11 46 -5
51 -7 35 -18 -98 -65 -443 -64 -715 0 -50 12 -78 14 -111 7 -32 -7 -59 -6 -94
3 -27 7 -55 13 -61 14 -18 0 -16 -26 3 -55 13 -20 16 -66 19 -277 2 -246 14
-360 54 -543 75 -346 258 -727 478 -998 100 -123 174 -197 199 -197 11 0 29
-10 40 -21 25 -28 224 -194 289 -240 133 -96 329 -202 476 -259 30 -11 63 -25
74 -29 44 -20 161 -60 180 -62 32 -2 34 0 25 32 -8 27 -6 32 10 36 30 8 13 23
-26 23 -19 0 -34 5 -34 11 0 6 -7 8 -16 5 -8 -3 -12 -2 -9 4 3 6 -2 10 -12 10
-10 0 -31 7 -47 15 -15 8 -35 15 -42 15 -8 0 -14 5 -14 10 0 6 -7 10 -15 10
-8 0 -15 5 -15 10 0 6 -5 10 -11 10 -5 0 -7 -4 -4 -10 3 -6 1 -10 -5 -10 -6 0
-13 7 -16 15 -4 8 -17 15 -29 15 -13 0 -25 4 -27 9 -1 5 -10 11 -18 13 -14 3
-29 12 -53 34 -8 7 -31 21 -53 32 -53 27 -144 85 -247 155 -63 44 -91 58 -112
55 -16 -2 -30 2 -32 10 -3 6 1 12 8 12 8 0 5 7 -7 19 -10 10 -25 16 -32 13 -8
-3 -12 1 -10 9 1 8 -40 57 -92 109 -235 234 -440 548 -550 840 -7 19 -17 40
-21 45 -14 19 -67 220 -93 350 -34 174 -46 279 -46 403 l0 103 -42 50 c-22 27
-39 51 -37 53 2 2 24 0 49 -5 25 -6 90 -14 145 -20 112 -11 248 -43 253 -59 2
-5 12 -10 22 -10 10 0 20 -4 22 -10 4 -12 167 -40 237 -40 31 0 96 5 145 10
49 6 91 8 93 6 3 -3 -12 -23 -34 -45 -31 -33 -48 -43 -92 -51 -152 -28 -520 4
-630 56 -29 13 -55 24 -57 24 -9 0 -3 -184 11 -300 19 -165 46 -289 96 -435
146 -425 377 -754 719 -1026 53 -42 107 -82 120 -89 14 -7 27 -17 30 -21 3 -4
41 -31 84 -59 129 -84 336 -176 538 -239 44 -14 43 -14 178 -41 58 -11 121
-25 140 -31 55 -17 479 -24 595 -10 188 23 373 67 389 93 17 28 0 32 -66 14
-236 -62 -310 -71 -593 -71 -321 1 -392 12 -699 111 -106 34 -205 75 -276 114
-19 10 -62 33 -95 51 -96 51 -192 115 -294 199 -170 138 -195 174 -145 207 20
13 26 10 84 -39 361 -310 690 -467 1122 -535 157 -25 470 -24 628 1 189 30
403 93 526 154 33 17 77 38 99 48 227 105 502 324 689 550 55 66 196 276 196
291 0 6 -10 17 -22 26 l-23 15 28 7 c20 5 26 12 22 23 -3 8 3 21 12 28 15 11
16 15 4 23 -11 7 -9 10 8 16 21 6 26 16 14 28 -16 16 -11 56 8 62 22 7 25 21
7 28 -8 4 -4 8 10 13 13 3 21 13 20 22 -2 10 8 18 28 24 26 7 35 17 52 60 36
92 68 229 97 410 8 52 21 91 39 118 19 28 25 47 20 65 -6 24 -8 24 -63 17 -94
-12 -371 -8 -427 6 -51 13 -126 73 -111 88 4 4 55 2 114 -4 143 -16 204 -15
304 4 109 20 119 23 119 38 0 18 159 56 280 66 58 5 120 13 139 19 19 6 37 9
39 6 8 -7 2 -258 -8 -360 -24 -239 -29 -269 -84 -508 -3 -12 3 -21 16 -26 14
-5 18 -10 10 -15 -16 -10 -15 -26 2 -26 7 0 16 9 19 20 4 15 14 20 41 20 37 0
49 -15 19 -23 -15 -4 -15 -6 5 -12 30 -10 28 -21 -5 -30 l-28 -7 24 -12 c23
-13 23 -14 5 -24 -10 -6 -13 -12 -6 -12 27 0 10 -19 -23 -26 -42 -8 -56 -24
-21 -24 37 0 40 -17 5 -24 -33 -6 -31 -26 4 -27 18 0 15 -4 -13 -16 l-35 -16
30 -13 30 -12 -30 -7 c-16 -3 -41 -12 -55 -18 -14 -6 -29 -13 -34 -16 -5 -2
-7 3 -3 12 7 19 -10 26 -43 18 -20 -5 -39 -32 -90 -131 -132 -252 -286 -459
-512 -686 -104 -105 -110 -114 -103 -143 4 -17 11 -31 17 -31 15 0 0 -136 -18
-173 -8 -15 -33 -46 -56 -68 l-40 -39 61 0 c36 0 74 -6 91 -15 53 -28 60 -56
60 -247 0 -253 -5 -258 -250 -258 -163 0 -204 10 -230 53 -36 58 -38 57 175
57 l195 0 0 50 0 50 -166 0 -166 0 -28 28 c-24 24 -29 39 -35 107 -7 69 -5 83
14 122 23 47 20 58 -19 90 -23 19 -30 17 -151 -40 -63 -29 -133 -62 -156 -72
l-43 -18 0 -84 0 -83 28 0 c21 0 42 17 97 80 l70 79 55 -2 c44 -2 55 -5 55
-19 0 -9 -35 -55 -78 -102 l-77 -85 75 -84 c91 -102 95 -123 26 -126 l-49 -2
-72 81 c-58 64 -78 80 -101 80 l-28 0 -3 -77 c-3 -78 -3 -78 -32 -81 -15 -2
-39 -1 -52 2 l-24 6 0 189 c0 183 -1 189 -20 184 -13 -3 -22 -17 -26 -39 l-6
-34 -109 0 -109 0 0 -149 c0 -160 0 -161 -55 -161 -55 0 -55 1 -55 155 l0 143
-27 -7 -28 -7 -5 -140 -5 -139 -148 -3 c-237 -4 -258 9 -265 166 l-4 92 -39 0
-39 0 0 -87 c0 -108 -18 -146 -77 -162 -40 -11 -390 -15 -417 -5 -14 5 -16 30
-16 170 0 162 0 165 -22 173 -20 7 -23 5 -26 -15 -3 -24 -5 -24 -118 -24
l-114 0 0 -155 0 -155 -34 0 -34 0 21 -42 c33 -65 31 -168 -5 -229 -34 -58
-89 -96 -160 -110 -187 -38 -336 148 -259 324 12 27 21 50 21 52 0 1 -18 5
-41 9 -26 4 -52 17 -70 36 l-29 28 0 142 0 142 29 29 c29 29 30 29 158 30 150
2 151 1 180 -13 36 -18 53 -68 53 -157 l0 -80 -157 -3 c-155 -3 -158 -3 -161
-25 l-3 -23 160 0 c150 0 161 -1 161 -18 0 -16 11 -25 63 -50 4 -2 7 66 7 151
0 151 1 156 25 185 16 19 39 32 62 37 l38 7 -70 29 c-102 43 -321 156 -384
198 -30 20 -68 45 -85 55 -63 40 -193 142 -274 214 l-83 75 -23 -22 c-12 -11
-30 -21 -38 -21 -9 0 -54 42 -100 93 -211 234 -391 521 -490 782 -96 252 -134
396 -170 640 -14 98 -18 539 -6 660 l7 70 -52 56 c-29 31 -77 73 -107 94 -77
54 -128 104 -151 147 -10 21 -19 40 -19 43 0 7 35 -11 70 -35z m5959 12 c-13
-37 -101 -127 -173 -176 -31 -21 -75 -56 -98 -76 -100 -92 -269 -162 -334
-138 -24 8 -47 7 -105 -5 -278 -60 -505 -67 -670 -21 -111 31 -85 37 236 53
116 6 243 17 283 26 97 21 175 48 180 63 5 16 -46 15 -183 -3 -60 -8 -142 -15
-180 -15 -103 0 -364 36 -381 52 -2 2 75 2 172 0 271 -7 497 21 724 88 58 17
116 34 130 37 25 5 25 5 5 -12 -19 -16 -17 -16 43 -11 50 5 83 17 165 59 56
30 120 65 142 80 51 33 56 33 44 -1z m-2465 -194 c4 -24 13 -53 21 -65 22 -34
184 -119 271 -144 136 -37 204 -60 204 -69 0 -11 -40 -25 -60 -21 -30 5 -236
84 -307 119 -42 20 -88 51 -108 73 -34 38 -61 109 -51 135 10 26 23 14 30 -28z
m-3907 -289 c179 -41 296 -183 295 -359 0 -109 -29 -179 -106 -256 -146 -146
-350 -150 -513 -9 -25 21 -55 63 -75 103 -30 61 -33 74 -33 162 0 89 2 101 34
163 52 102 131 164 246 192 65 17 95 17 152 4z m4719 -139 c99 -57 198 -194
238 -329 23 -78 20 -83 -14 -23 -60 109 -105 169 -197 259 -51 51 -93 100 -93
108 0 21 5 19 66 -15z m1961 -91 c118 -27 205 -95 258 -203 35 -71 39 -209 8
-276 -32 -71 -105 -145 -181 -182 -59 -29 -76 -33 -147 -33 -69 0 -89 4 -139
30 -76 38 -151 110 -178 172 -19 40 -22 64 -20 148 2 85 6 108 29 154 47 97
131 163 238 187 68 15 78 16 132 3z m-5001 -207 c20 -7 21 -9 7 -54 -13 -46
-15 -48 -51 -48 -20 0 -55 5 -77 11 -40 11 -134 68 -135 81 0 13 219 21 256
10z m3623 -8 c7 -7 -33 -45 -64 -62 -37 -19 -137 -41 -187 -42 -35 0 -38 2
-48 41 -6 22 -13 46 -16 54 -4 10 7 15 43 18 52 5 265 -2 272 -9z m-3429 -313
c0 -15 -78 -123 -130 -181 l-50 -55 0 50 c0 61 41 127 104 168 41 27 76 35 76
18z m3031 -33 c64 -53 89 -98 89 -158 l-1 -45 -60 65 c-54 58 -119 152 -119
173 0 20 45 3 91 -35z m-1607 -95 c19 -73 10 -248 -16 -290 -29 -49 -69 -39
-84 22 -5 19 -9 23 -15 14 -13 -21 -22 37 -15 96 7 64 15 87 27 79 5 -3 12 14
15 38 5 29 17 52 37 71 16 15 32 26 34 23 2 -2 10 -26 17 -53z m137 33 c16
-15 32 -45 39 -76 7 -30 16 -47 20 -40 12 19 20 -28 19 -115 0 -53 -3 -73 -9
-60 -7 18 -9 16 -15 -12 -4 -19 -14 -33 -22 -33 -8 0 -11 -4 -8 -10 3 -6 -4
-10 -17 -10 -44 0 -60 52 -61 192 -1 117 8 188 22 188 3 0 18 -11 32 -24z
m-2949 -346 c33 -85 82 -209 109 -275 86 -213 128 -335 117 -335 -2 0 -52 7
-113 16 -60 9 -126 18 -145 20 -37 5 -190 27 -300 44 -36 5 -99 15 -140 21
-95 13 -110 18 -110 31 0 14 64 97 334 434 142 177 167 205 179 201 5 -1 36
-72 69 -157z m5564 -374 c148 -73 308 -152 356 -175 48 -22 90 -46 94 -52 9
-15 -16 -36 -131 -109 -55 -35 -113 -74 -130 -88 -52 -43 -406 -272 -420 -272
-16 0 -21 46 -36 295 -6 104 -12 192 -14 195 -2 3 -5 55 -6 115 -1 61 -7 129
-12 153 -10 48 -5 72 16 72 7 0 134 -60 283 -134z m-5688 -1144 l2 -202 201 0
200 0 -3 -52 -3 -53 -250 0 -250 0 -3 245 c-1 134 0 251 3 258 3 9 19 13 52
10 l48 -3 3 -203z m5226 194 c62 -26 66 -40 66 -238 0 -97 -4 -188 -10 -202
-20 -54 -48 -61 -243 -61 l-179 0 -34 37 c-61 67 -59 68 167 68 l200 0 -3 48
-3 47 -173 5 -174 5 -24 28 c-21 25 -24 38 -24 113 0 96 8 117 53 144 28 18
51 20 190 20 112 0 167 -4 191 -14z m627 -22 l29 -28 0 -196 0 -196 -31 -30
-30 -29 -179 0 c-165 0 -181 2 -206 21 -16 11 -34 35 -41 52 l-13 32 200 0
200 0 0 50 0 50 -165 0 c-184 0 -205 6 -224 62 -16 44 -14 143 4 184 24 58 53
65 253 61 l173 -5 30 -28z m-5020 -103 l29 -29 0 -171 0 -170 -36 -7 c-42 -8
-302 0 -324 10 -38 17 -54 59 -58 153 l-4 92 158 3 c156 3 159 3 162 26 l3 22
-160 0 -161 0 0 50 0 50 181 0 181 0 29 -29z m483 3 l26 -27 2 -181 c2 -239 1
-266 -18 -293 -23 -36 -54 -43 -200 -43 l-134 0 0 49 c0 47 2 50 30 56 16 4
51 6 77 5 27 -1 69 -1 96 -1 43 1 47 3 47 26 0 14 -6 25 -12 26 -7 0 -49 0
-93 0 -102 -1 -154 11 -182 44 -22 24 -23 35 -23 166 l0 141 29 29 29 29 150
0 c148 0 150 0 176 -26z"/>
<path d="M4946 8284 c-9 -26 -16 -69 -16 -95 0 -53 23 -154 40 -174 30 -37
122 -46 128 -12 2 10 -3 17 -11 17 -9 0 -29 12 -46 26 -38 32 -64 112 -66 206
-1 37 -4 70 -7 73 -3 4 -13 -15 -22 -41z"/>
<path d="M5417 7989 c3 -11 11 -23 18 -26 41 -15 138 -403 101 -403 -17 0 -52
26 -136 100 -90 80 -107 91 -91 62 19 -36 109 -134 174 -189 60 -52 216 -139
235 -132 5 2 -13 45 -40 94 -29 52 -70 154 -99 241 -48 147 -84 217 -133 256
-28 23 -35 22 -29 -3z"/>
<path d="M5598 7845 c6 -11 37 -40 70 -65 33 -25 102 -78 154 -119 94 -75 248
-161 248 -139 0 14 -101 148 -112 148 -4 0 -8 -5 -8 -11 0 -5 -28 6 -62 26
-35 20 -88 48 -118 62 -30 14 -76 41 -102 60 -27 19 -48 31 -48 27 0 -4 -7 1
-16 12 -15 19 -15 19 -6 -1z"/>
<path d="M6895 3619 c-61 -57 -105 -91 -127 -101 -16 -7 -28 -16 -28 -20 0 -5
-5 -8 -10 -8 -6 0 -16 -5 -23 -11 -7 -5 -27 -19 -45 -30 -35 -20 -37 -35 -9
-53 13 -8 23 -7 41 4 69 44 111 74 114 81 2 5 9 9 15 10 27 1 102 66 105 91 3
28 -17 51 -33 37z"/>
<path d="M5855 3360 c-3 -5 -3 -10 2 -11 12 -1 -30 -18 -47 -18 -13 -1 -13 0
0 9 9 6 10 10 3 10 -6 0 -18 -6 -25 -14 -9 -8 -51 -16 -113 -21 -55 -4 -106
-12 -112 -17 -9 -7 -13 -7 -13 1 0 14 -35 14 -60 1 -11 -6 -82 -10 -160 -11
l-140 0 0 -50 0 -49 35 0 c31 0 35 3 35 25 0 34 23 38 200 33 116 -4 154 -9
174 -22 24 -15 32 -15 108 0 46 8 108 20 138 25 73 13 104 33 90 59 -5 10 -10
28 -10 39 0 18 -6 21 -49 21 -28 0 -53 -4 -56 -10z"/>
<path d="M6694 3206 c-3 -13 -4 -35 -2 -47 3 -24 4 -24 146 -27 l142 -3 0 51
0 50 -140 0 c-139 0 -140 0 -146 -24z"/>
<path d="M4780 3034 l0 -104 145 0 146 0 -3 83 -3 82 -75 7 c-41 4 -105 13
-142 21 l-68 15 0 -104z"/>
<path d="M4220 2830 c0 -5 -49 -11 -112 -12 l-113 -3 -27 -54 c-33 -64 -35
-103 -9 -163 22 -51 52 -80 105 -102 55 -23 101 -20 158 11 64 35 98 90 98
161 0 61 -13 96 -54 140 -30 32 -46 40 -46 22z"/>
<path d="M1890 5801 c-100 -23 -175 -83 -222 -175 -26 -52 -31 -72 -30 -136 0
-127 61 -227 177 -288 43 -23 62 -27 140 -27 71 0 100 5 136 21 66 31 121 84
155 151 25 51 29 68 29 143 0 68 -5 94 -24 132 -29 60 -91 123 -151 153 -50
26 -154 38 -210 26z"/>
<path d="M8513 5544 c-56 -27 -123 -99 -148 -158 -21 -51 -19 -154 5 -218 24
-63 84 -128 148 -160 68 -33 198 -33 262 0 103 54 170 161 170 273 0 106 -74
218 -175 265 -72 34 -189 33 -262 -2z"/>
<path d="M2360 4653 c-34 -43 -85 -107 -115 -143 -29 -36 -77 -96 -106 -135
-29 -38 -70 -90 -91 -114 -59 -67 -53 -74 67 -86 33 -3 76 -10 95 -15 19 -4
76 -14 125 -20 50 -7 119 -16 155 -21 36 -5 91 -13 123 -17 32 -5 60 -5 63 -1
2 4 -7 33 -21 65 -14 31 -25 60 -25 65 0 5 -12 34 -26 66 -30 68 -37 85 -57
138 -8 22 -26 69 -40 105 -14 36 -35 91 -47 123 -13 31 -26 60 -31 63 -4 2
-36 -30 -69 -73z"/>
<path d="M7839 4323 c-6 -55 33 -648 43 -658 3 -4 33 13 66 37 33 24 158 106
276 183 119 77 216 143 216 147 0 5 -485 249 -567 284 -18 8 -33 11 -34 7z"/>
<path d="M7290 3180 l0 -50 145 0 145 0 0 50 0 50 -145 0 -145 0 0 -50z"/>
<path d="M7880 3180 l0 -50 145 0 145 0 0 50 0 50 -145 0 -145 0 0 -50z"/>
<path d="M3420 3030 l0 -100 105 0 105 0 0 100 0 100 -105 0 -105 0 0 -100z"/>
</g>
</svg>
